<?xml version="1.0" encoding="utf-8"?>
<!-- Generator: Adobe Illustrator 21.1.0, SVG Export Plug-In . SVG Version: 6.00 Build 0)  -->
<svg version="1.1" id="Layer_1" xmlns="http://www.w3.org/2000/svg" xmlns:xlink="http://www.w3.org/1999/xlink" x="0px" y="0px"
	 width="375.9px" height="38.8px" viewBox="0 0 375.9 38.8" style="enable-background:new 0 0 375.9 38.8;" xml:space="preserve">
<style type="text/css">
	.st0{fill:#FFFFFF;}
	.st1{fill:url(#SVGID_1_);}
	.st2{fill:url(#SVGID_2_);}
</style>
<g>
	<g>
		<path class="st0" d="M288.4,2.3h8.8c4,0,7.1,3,7.1,7v10.3c0,4-3.1,7-7.1,7h-8.8V2.3z M297.1,22.4c1.6,0,2.8-1.2,2.8-2.8V9.3
			c0-1.6-1.2-2.8-2.8-2.8h-4.4v16L297.1,22.4L297.1,22.4z"/>
		<path class="st0" d="M320.3,18.3h4.4V20c0,4-3.1,7-7.1,7h-1.7c-4,0-7.1-3-7.1-7V9c0-4,3.1-7,7.1-7h1.7c4,0,7.1,3,7.1,7v1.7h-4.4V9
			c0-1.6-1.2-2.8-2.8-2.8H316c-1.6,0-2.8,1.2-2.8,2.8v11c0,1.6,1.2,2.8,2.8,2.8h1.6c1.6,0,2.8-1.3,2.8-2.8v-1.7H320.3z"/>
		<g>
			<path class="st0" d="M355.7,19.9c0,4-3.1,7-7.1,7h-1.7c-4,0-7.1-3-7.1-7V9c0-4,3.1-7,7.1-7h1.7c4,0,7.1,3,7.1,7V19.9z
				 M344.2,19.9c0,1.6,1.2,2.8,2.8,2.8h1.6c1.6,0,2.8-1.3,2.8-2.8V9c0-1.6-1.2-2.8-2.8-2.8H347c-1.6,0-2.8,1.2-2.8,2.8V19.9z"/>
			<path class="st0" d="M360.4,9c0-4,3.1-7,7.1-7h1.2c4,0,7.1,3,7.1,7v1.2h-4.4V9c0-1.6-1.2-2.8-2.8-2.8h-1.1
				c-1.6,0-2.8,1.2-2.8,2.8v0.2c0,4.9,11.2,1.4,11.2,10.5V20c0,4-3.1,7-7.1,7h-1.6c-4,0-7.1-3-7.1-7v-1.2h4.4V20
				c0,1.6,1.2,2.8,2.8,2.8h1.4c1.6,0,2.8-1.3,2.8-2.8v-0.3c0-5.2-11.2-1.1-11.2-10.5V9H360.4z"/>
		</g>
	</g>
	<g>
		<polygon class="st0" points="271.6,4.7 271.6,2.1 257.5,2.1 257.5,26.7 271.6,26.7 271.6,24.1 260.2,24.1 260.2,15.7 269.4,15.7
			269.4,13.1 260.2,13.1 260.2,4.7 		"/>
		<path class="st0" d="M246.7,16c0.7-0.3,1.4-0.8,2-1.3c0.6-0.6,1-1.2,1.3-2s0.5-1.6,0.5-2.4v-2c0-0.9-0.2-1.7-0.5-2.4
			c-0.3-0.8-0.8-1.4-1.3-2c-0.6-0.6-1.2-1-2-1.3c-0.7-0.3-1.6-0.5-2.4-0.5h-7.9v24.7h2.7V16.5h2.6l6.5,10.3h3.1l-6.6-10.3
			C245.5,16.4,246.1,16.2,246.7,16z M245.6,13.6c-0.4,0.2-0.9,0.3-1.4,0.3h-5.1V4.8h5.1c0.5,0,1,0.1,1.4,0.3
			c0.4,0.2,0.8,0.4,1.1,0.8c0.3,0.3,0.6,0.7,0.8,1.1c0.2,0.4,0.3,0.9,0.3,1.4v2c0,0.5-0.1,1-0.3,1.4c-0.2,0.4-0.4,0.8-0.8,1.1
			C246.4,13.1,246.1,13.4,245.6,13.6z"/>
		<polygon class="st0" points="216,26.7 230.1,26.7 230.1,24.1 218.7,24.1 218.7,15.7 227.9,15.7 227.9,13.1 218.7,13.1 218.7,4.7
			230.1,4.7 230.1,2.1 216,2.1 		"/>
		<polygon class="st0" points="205.2,13.1 196.5,13.1 196.5,2.1 193.8,2.1 193.8,26.7 196.5,26.7 196.5,15.7 205.2,15.7 205.2,26.7
			207.9,26.7 207.9,2.1 205.2,2.1 		"/>
		<path class="st0" d="M185.7,3.9c-0.6-0.6-1.2-1-2-1.3s-1.6-0.5-2.4-0.5h-7.9v24.7h2.7v-9.3h5.2c0.9,0,1.7-0.2,2.4-0.5
			c0.8-0.3,1.4-0.8,2-1.3c0.6-0.6,1-1.2,1.3-2c0.3-0.7,0.5-1.6,0.5-2.4v-3c0-0.9-0.2-1.7-0.5-2.4C186.7,5.1,186.2,4.5,185.7,3.9z
			 M184.8,8.3v3c0,0.5-0.1,1-0.3,1.4s-0.4,0.8-0.8,1.1c-0.3,0.3-0.7,0.6-1.1,0.8c-0.4,0.2-0.9,0.3-1.4,0.3h-5.1V4.7h5.1
			c0.5,0,1,0.1,1.4,0.3c0.4,0.2,0.8,0.4,1.1,0.8c0.3,0.3,0.6,0.7,0.8,1.1S184.8,7.8,184.8,8.3z"/>
		<path class="st0" d="M164.6,15.5c-0.6-0.5-1.2-1-1.9-1.3s-1.4-0.7-2.1-1c-0.7-0.3-1.4-0.6-2.1-0.8c-0.7-0.3-1.3-0.6-1.8-0.9
			c-0.5-0.4-0.9-0.8-1.2-1.3s-0.4-1.1-0.4-1.8V7.9c0-0.5,0.1-1,0.3-1.4s0.4-0.8,0.8-1.1c0.3-0.3,0.7-0.6,1.1-0.8
			c0.4-0.2,0.9-0.3,1.4-0.3h1.3c0.5,0,1,0.1,1.4,0.3c0.4,0.2,0.8,0.4,1.1,0.8c0.3,0.3,0.6,0.7,0.8,1.1s0.3,0.9,0.3,1.4v1.2h2.7V7.8
			c0-0.9-0.2-1.7-0.5-2.4c-0.3-0.7-0.8-1.4-1.3-2c-0.6-0.6-1.2-1-2-1.3c-0.7-0.3-1.6-0.5-2.4-0.5h-1.5c-0.9,0-1.7,0.2-2.4,0.5
			c-0.8,0.3-1.4,0.8-2,1.3c-0.6,0.6-1,1.2-1.3,2c-0.3,0.7-0.5,1.6-0.5,2.4v0.5c0,1.1,0.2,2,0.5,2.7s0.8,1.4,1.4,1.9
			c0.6,0.5,1.2,0.9,1.9,1.3c0.7,0.3,1.4,0.6,2.1,0.9c0.7,0.3,1.4,0.5,2.1,0.8c0.7,0.3,1.3,0.6,1.8,1s0.9,0.8,1.2,1.3
			s0.4,1.2,0.4,1.9v0.7c0,0.5-0.1,1-0.3,1.4s-0.5,0.8-0.8,1.1s-0.7,0.6-1.2,0.8c-0.4,0.2-0.9,0.3-1.4,0.3h-1.5c-0.5,0-1-0.1-1.4-0.3
			c-0.5-0.2-0.9-0.4-1.2-0.8c-0.3-0.3-0.6-0.7-0.8-1.1c-0.2-0.4-0.3-0.9-0.3-1.4v-1.6h-2.7v1.6c0,0.9,0.2,1.7,0.5,2.4s0.8,1.4,1.4,2
			c0.6,0.6,1.3,1,2,1.3c0.8,0.3,1.6,0.5,2.4,0.5h1.7c0.9,0,1.7-0.2,2.4-0.5c0.8-0.3,1.4-0.8,2-1.3c0.6-0.6,1-1.2,1.4-2
			c0.3-0.7,0.5-1.6,0.5-2.4v-0.7c0-1.1-0.2-2-0.5-2.7C165.6,16.7,165.2,16,164.6,15.5z"/>
		<path class="st0" d="M143.8,3.6c-0.6-0.6-1.2-1-2-1.3c-0.7-0.3-1.6-0.5-2.4-0.5h-1.7c-0.9,0-1.7,0.2-2.4,0.5
			c-0.8,0.3-1.4,0.8-2,1.3c-0.6,0.6-1,1.2-1.3,2c-0.3,0.7-0.5,1.6-0.5,2.4v12.9c0,0.9,0.2,1.7,0.5,2.4s0.8,1.4,1.3,2
			c0.6,0.6,1.2,1,2,1.3s1.6,0.5,2.4,0.5h1.7c0.9,0,1.7-0.2,2.4-0.5s1.4-0.8,2-1.3c0.6-0.6,1-1.2,1.3-2c0.3-0.7,0.5-1.6,0.5-2.4v-13
			c0-0.9-0.2-1.7-0.5-2.4C144.9,4.8,144.4,4.1,143.8,3.6z M142.9,7.9v12.9c0,0.5-0.1,1-0.3,1.4s-0.4,0.8-0.8,1.1
			c-0.3,0.3-0.7,0.6-1.1,0.8c-0.4,0.2-0.9,0.3-1.4,0.3h-1.5c-0.5,0-1-0.1-1.4-0.3s-0.8-0.4-1.1-0.8c-0.3-0.3-0.6-0.7-0.8-1.1
			c-0.2-0.4-0.3-0.9-0.3-1.4V7.9c0-0.5,0.1-1,0.3-1.4s0.4-0.8,0.8-1.1c0.3-0.3,0.7-0.6,1.1-0.8c0.4-0.2,0.9-0.3,1.4-0.3h1.5
			c0.5,0,1,0.1,1.4,0.3c0.4,0.2,0.8,0.4,1.1,0.8c0.3,0.3,0.6,0.7,0.8,1.1C142.9,7,142.9,7.4,142.9,7.9z"/>
		<path class="st0" d="M123.2,15.5c-0.6-0.5-1.2-1-1.9-1.3s-1.4-0.7-2.1-1c-0.7-0.3-1.4-0.6-2.1-0.8c-0.7-0.3-1.3-0.6-1.8-0.9
			c-0.5-0.4-0.9-0.8-1.2-1.3s-0.4-1.1-0.4-1.8V7.9c0-0.5,0.1-1,0.3-1.4s0.4-0.8,0.8-1.1c0.3-0.3,0.7-0.6,1.1-0.8
			c0.4-0.2,0.9-0.3,1.4-0.3h1.3c0.5,0,1,0.1,1.4,0.3c0.4,0.2,0.8,0.4,1.1,0.8c0.3,0.3,0.6,0.7,0.8,1.1s0.3,0.9,0.3,1.4v1.2h2.7V7.8
			c0-0.9-0.2-1.7-0.5-2.4c-0.3-0.7-0.8-1.4-1.3-2c-0.6-0.6-1.2-1-2-1.3c-0.7-0.3-1.6-0.5-2.4-0.5h-1.5c-0.9,0-1.7,0.2-2.4,0.5
			c-0.8,0.3-1.4,0.8-2,1.3c-0.6,0.6-1,1.2-1.3,2C111.2,6.1,111,7,111,7.8v0.5c0,1.1,0.2,2,0.5,2.7s0.8,1.4,1.4,1.9
			c0.6,0.5,1.2,0.9,1.9,1.3c0.7,0.3,1.4,0.6,2.1,0.9c0.7,0.3,1.4,0.5,2.1,0.8c0.7,0.3,1.3,0.6,1.8,1s0.9,0.8,1.2,1.3
			s0.4,1.2,0.4,1.9v0.7c0,0.5-0.1,1-0.3,1.4s-0.5,0.8-0.8,1.1s-0.7,0.6-1.2,0.8c-0.4,0.2-0.9,0.3-1.4,0.3h-1.5c-0.5,0-1-0.1-1.4-0.3
			c-0.5-0.2-0.9-0.4-1.2-0.8c-0.3-0.3-0.6-0.7-0.8-1.1c-0.2-0.4-0.3-0.9-0.3-1.4v-1.6h-2.7v1.6c0,0.9,0.2,1.7,0.5,2.4s0.8,1.4,1.4,2
			c0.6,0.6,1.3,1,2,1.3c0.8,0.3,1.6,0.5,2.4,0.5h1.7c0.9,0,1.7-0.2,2.4-0.5c0.8-0.3,1.4-0.8,2-1.3c0.6-0.6,1-1.2,1.4-2
			c0.3-0.7,0.5-1.6,0.5-2.4v-0.7c0-1.1-0.2-2-0.5-2.7C124.2,16.7,123.7,16,123.2,15.5z"/>
		<polygon class="st0" points="91.1,26.7 105.2,26.7 105.2,24.1 93.8,24.1 93.8,15.7 103.1,15.7 103.1,13.1 93.8,13.1 93.8,4.7
			105.2,4.7 105.2,2.1 91.1,2.1 		"/>
		<polygon class="st0" points="75.3,15.8 68.5,2.1 66.8,2.1 66.8,26.7 69.4,26.7 69.4,9.3 74.6,19.6 76,19.6 81.2,9.3 81.2,26.7
			83.8,26.7 83.8,2.1 82.1,2.1 		"/>
	</g>

		<linearGradient id="SVGID_1_" gradientUnits="userSpaceOnUse" x1="0.7" y1="53.55" x2="50.8142" y2="53.55" gradientTransform="matrix(1 0 0 -1 0 74)">
		<stop  offset="0" style="stop-color:#7D58FF"/>
		<stop  offset="1" style="stop-color:#FF007D"/>
	</linearGradient>
	<path class="st1" d="M48.9,2.5c-0.4-0.2-0.9-0.4-1.5-0.4H4.1c-0.5,0-1.1,0-1.6,0.4c-1.1,0.6-1.8,1.7-1.8,3v25.1
		c0,1.8,1.2,2.6,2.3,2.6c0.5,0,1-0.2,1.5-0.5l11.1-6.9l7.9,11.7c0.6,0.8,1.4,1.3,2.2,1.3s1.7-0.5,2.2-1.3L38,22.6l9,4.4
		c1.2,0.6,2.4,0.4,3.1-0.5c0.4-0.5,0.6-1.1,0.6-1.8V5.5C50.8,4.2,50.1,3,48.9,2.5z M14.1,23.6L3.3,30.3V7.6L14.1,23.6z M45,7.7
		l-7.8,11.6l-6.1-3L45,7.7z M7.6,4.7h37.3L28.3,14.9L7.6,4.7z M35.7,21.5l-9.9,14.6l-0.1,0.1c0,0,0-0.1-0.1-0.1l-7.9-11.6l10.6-6.6
		L35.7,21.5z M25.7,16.5l-9.3,5.8L5.8,6.7L25.7,16.5z M48.2,7.6v17.1l-8.7-4.3L48.2,7.6z"/>
</g>
<linearGradient id="SVGID_2_" gradientUnits="userSpaceOnUse" x1="326.152" y1="59.4" x2="339.735" y2="59.4" gradientTransform="matrix(1 0 0 -1 0 74)">
	<stop  offset="0" style="stop-color:#7D58FF"/>
	<stop  offset="1" style="stop-color:#FF007D"/>
</linearGradient>
<path class="st2" d="M339.7,0c-2.2,0-4.1,1.4-4.8,3.5l-8.8,25.7c2.2,0,4.1-1.4,4.8-3.5L339.7,0L339.7,0z"/>
</svg>
