<?xml version="1.0" encoding="UTF-8"?>
<svg width="200px" height="250px" viewBox="0 0 200 250" version="1.1" xmlns="http://www.w3.org/2000/svg" xmlns:xlink="http://www.w3.org/1999/xlink">
    <!-- Generator: Sketch 43.2 (39069) - http://www.bohemiancoding.com/sketch -->
    <title>dcos-logo-gray</title>
    <desc>Created with Sketch.</desc>
    <defs></defs>
    <g id="Page-1" stroke="none" stroke-width="1" fill="none" fill-rule="evenodd">
        <g id="dcos-logo-gray" fill-rule="nonzero" fill="#A9A6AF">
            <g id="logomark-flat">
                <path d="M14.429687,134.242069 L0.585660465,148.086095 C-0.195286822,148.867043 -0.195286822,150.132957 0.585660465,150.913905 L98.5860454,248.91429 C99.3669927,249.695237 100.632907,249.695237 101.413855,248.91429 L199.41424,150.913905 C200.195187,150.132957 200.195187,148.867043 199.41424,148.086095 L185.569942,134.241797 L105.655856,214.156776 C102.532557,217.280075 97.4676931,217.280075 94.3443939,214.156776 L14.429687,134.242069 L14.429687,134.242069 Z M101.426,150.8351 C100.638,150.0471 99.362,150.0471 98.574,150.8351 L71.175,178.2341 C70.388,179.0211 70.388,180.2981 71.175,181.0861 L98.574,208.4841 C99.362,209.2721 100.638,209.2721 101.426,208.4841 L128.825,181.0861 C129.612,180.2981 129.612,179.0211 128.825,178.2341 L101.426,150.8351 Z M136.718,115.5431 C135.931,114.7551 134.654,114.7551 133.866,115.5431 L106.468,142.9411 C105.68,143.7291 105.68,145.0061 106.468,145.7931 L133.866,173.1921 C134.654,173.9791 135.931,173.9791 136.718,173.1921 L164.117,145.7931 C164.905,145.0061 164.905,143.7291 164.117,142.9411 L136.718,115.5431 Z M93.532,142.9411 L66.134,115.5431 C65.346,114.7551 64.069,114.7551 63.282,115.5431 L35.883,142.9411 C35.095,143.7291 35.095,145.0061 35.883,145.7931 L63.282,173.1921 C64.069,173.9791 65.346,173.9791 66.134,173.1921 L93.532,145.7931 C94.32,145.0061 94.32,143.7291 93.532,142.9411 Z M98.574,58.2391 C99.362,59.0271 100.638,59.0271 101.426,58.2391 L128.825,30.8411 C129.612,30.0531 129.612,28.7761 128.825,27.9891 L101.426,0.5901 C100.638,-0.1969 99.362,-0.1969 98.574,0.5901 L71.175,27.9891 C70.388,28.7761 70.388,30.0531 71.175,30.8411 L98.574,58.2391 Z M106.468,71.1831 L133.866,98.5821 C134.654,99.3701 135.931,99.3701 136.718,98.5821 L164.117,71.1831 C164.905,70.3961 164.905,69.1191 164.117,68.3311 L136.718,40.9331 C135.931,40.1451 134.654,40.1451 133.866,40.9331 L106.468,68.3311 C105.68,69.1191 105.68,70.3961 106.468,71.1831 Z M63.282,98.5821 C64.069,99.3701 65.346,99.3701 66.134,98.5821 L93.532,71.1831 C94.32,70.3961 94.32,69.1191 93.532,68.3311 L66.134,40.9331 C65.346,40.1451 64.069,40.1451 63.282,40.9331 L35.883,68.3311 C35.095,69.1191 35.095,70.3961 35.883,71.1831 L63.282,98.5821 Z M199.409,107.6491 L172.011,80.2501 C171.223,79.4631 169.946,79.4631 169.159,80.2501 L141.76,107.6491 C140.973,108.4361 140.973,109.7131 141.76,110.5011 L169.159,137.8991 C169.946,138.6871 171.223,138.6871 172.011,137.8991 L199.409,110.5011 C200.197,109.7131 200.197,108.4361 199.409,107.6491 Z M98.574,80.2501 L71.175,107.6491 C70.388,108.4361 70.388,109.7131 71.175,110.5011 L98.574,137.8991 C99.362,138.6871 100.638,138.6871 101.426,137.8991 L128.825,110.5011 C129.612,109.7131 129.612,108.4361 128.825,107.6491 L101.426,80.2501 C100.638,79.4631 99.362,79.4631 98.574,80.2501 Z M58.24,110.5011 L30.841,137.8991 C30.054,138.6871 28.777,138.6871 27.989,137.8991 L0.591,110.5011 C-0.197,109.7131 -0.197,108.4361 0.591,107.6491 L27.989,80.2501 C28.777,79.4631 30.054,79.4631 30.841,80.2501 L58.24,107.6491 C59.027,108.4361 59.027,109.7131 58.24,110.5011 Z" id="logo"></path>
            </g>
        </g>
    </g>
</svg>