<?xml version="1.0" encoding="UTF-8"?>
<svg width="209px" height="48px" viewBox="0 0 209 48" version="1.1" xmlns="http://www.w3.org/2000/svg" xmlns:xlink="http://www.w3.org/1999/xlink">
    <!-- Generator: Sketch 48.2 (47327) - http://www.bohemiancoding.com/sketch -->
    <title>header-dcos-logo</title>
    <desc>Created with Sketch.</desc>
    <defs>
        <linearGradient x1="0%" y1="0%" x2="100%" y2="100%" id="linearGradient-1">
            <stop stop-color="#7D58FF" offset="0%"></stop>
            <stop stop-color="#FF007D" offset="100%"></stop>
        </linearGradient>
    </defs>
    <g id="assets" stroke="none" stroke-width="1" fill="none" fill-rule="evenodd">
        <g id="header-dcos-logo">
            <path d="M208.340426,26.2327335 L208.340426,27.2194476 C208.340426,28.5443749 208.070379,29.8093133 207.539457,30.9780626 C207.02382,32.1168175 206.318641,33.1293888 205.447359,33.988885 C204.575057,34.8463126 203.549898,35.5299792 202.399397,36.0202333 C201.239724,36.5156589 199.997509,36.7659574 198.707399,36.7659574 L196.377864,36.7659574 C195.088772,36.7659574 193.845538,36.5156589 192.685866,36.0202333 C191.535365,35.5299792 190.510206,34.8463126 189.638923,33.988885 C188.766621,33.1293888 188.061442,32.1157832 187.545806,30.9770283 C187.015903,29.8093133 186.745856,28.5443749 186.745856,27.2194476 L186.745856,25.0164068 L192.556447,25.0164068 L192.556447,27.2194476 C192.556447,27.7324561 192.659371,28.2134016 192.860122,28.647804 C193.077179,29.1153037 193.371683,29.5321232 193.73752,29.8858509 C194.103357,30.2416471 194.535431,30.5240087 195.020497,30.7267298 C195.497409,30.9273823 196.006931,31.0287429 196.536835,31.0287429 L198.571866,31.0287429 C199.098712,31.0287429 199.603139,30.9284166 200.07088,30.7287984 C200.551869,30.525043 200.981906,30.2416471 201.347743,29.8858509 C201.714599,29.5321232 202.009103,29.1153037 202.226159,28.647804 C202.426911,28.2134016 202.528815,27.7324561 202.528815,27.2194476 L202.528815,26.2327335 C202.528815,25.3722031 202.375959,24.6750906 202.074322,24.1579449 C201.742113,23.5859818 201.291696,23.0915905 200.735297,22.6861482 C200.108585,22.2289914 199.388121,21.836995 198.592247,21.5163646 C197.687336,21.1512597 196.757967,20.7882234 195.802104,20.4241529 C194.802421,20.0435336 193.817005,19.6174055 192.870313,19.1571459 C191.834964,18.6534459 190.892348,18.0142538 190.069979,17.2571525 C189.20481,16.4607481 188.503708,15.4792055 187.987052,14.3383821 C187.463263,13.1851471 187.197293,11.7816137 187.197293,10.1670848 L187.197293,9.54754419 C187.197293,8.23502836 187.446959,6.98146715 187.937119,5.82306075 C188.422184,4.67706584 189.099849,3.65725449 189.95177,2.79362115 C190.802672,1.92998781 191.811526,1.24218401 192.949798,0.748826995 C194.09928,0.252367109 195.3364,0 196.62651,0 L198.707399,0 C200.000566,0 201.235648,0.252367109 202.375959,0.749861286 C203.50506,1.2432183 204.510857,1.9310221 205.36074,2.79362115 C206.212661,3.65725449 206.890325,4.67706584 207.374371,5.82409504 C207.865551,6.98146715 208.114198,8.23502836 208.114198,9.54754419 L208.114198,11.2655023 L202.302588,11.2655023 L202.302588,9.54754419 C202.302588,9.01798697 202.205778,8.52359567 202.015217,8.07781606 C201.817522,7.61652209 201.546457,7.20797697 201.211191,6.86769509 C200.874906,6.52741321 200.475441,6.25229169 200.018909,6.05267345 C199.579701,5.85822666 199.092598,5.76100326 198.571866,5.76100326 L196.763062,5.76100326 C196.241312,5.76100326 195.755228,5.85822666 195.313981,6.05267345 C194.85643,6.25436027 194.448813,6.53155038 194.103357,6.87700372 C193.764015,7.21521701 193.49193,7.61962496 193.297292,8.07678177 C193.105712,8.52359567 193.009922,9.01798697 193.009922,9.54754419 L193.009922,10.1670848 C193.009922,10.941769 193.156664,11.5778583 193.44913,12.0567352 C193.78032,12.6028411 194.230737,13.0786151 194.787135,13.4716459 C195.417924,13.9184598 196.146541,14.3135591 196.956681,14.6466009 C197.864649,15.0199801 198.800132,15.4016337 199.763129,15.7905273 C200.761793,16.1949352 201.748227,16.6458863 202.692882,17.1289004 C203.721097,17.6543204 204.658618,18.3121298 205.479968,19.0847455 C206.34208,19.8956299 207.040125,20.8916526 207.554742,22.0459218 C208.076493,23.2136368 208.340426,24.6213075 208.340426,26.2327335 Z M176.86725,2.79362115 C177.719171,3.65725449 178.395817,4.67706584 178.879863,5.82409504 C179.371042,6.98146715 179.619689,8.23502836 179.619689,9.54754419 L179.619689,27.2194476 C179.619689,28.5319634 179.371042,29.7855246 178.879863,30.9428967 C178.395817,32.0899259 177.719171,33.1076687 176.86725,33.9723363 C176.015329,34.8370039 175.010551,35.5237734 173.88145,36.0160962 C172.742158,36.5135903 171.507077,36.7659574 170.21289,36.7659574 L167.906793,36.7659574 C166.614645,36.7659574 165.378544,36.5146246 164.229062,36.0171305 C163.090789,35.5248077 162.082954,34.8370039 161.231033,33.9723363 C160.379112,33.108703 159.701448,32.0899259 159.217401,30.9418624 C158.726222,29.7855246 158.477575,28.5319634 158.477575,27.2194476 L158.477575,9.54754419 C158.477575,8.23502836 158.726222,6.98146715 159.217401,5.82306075 C159.701448,4.67706584 160.379112,3.65725449 161.231033,2.79362115 C162.082954,1.92998781 163.090789,1.24218401 164.229062,0.748826995 C165.378544,0.252367109 166.614645,0 167.906793,0 L170.21289,0 C171.507077,0 172.741139,0.252367109 173.88145,0.749861286 C175.01157,1.2432183 176.016348,1.9310221 176.86725,2.79362115 Z M173.806053,27.2194476 L173.806053,9.54754419 C173.806053,9.01798697 173.708225,8.52359567 173.518683,8.07781606 C173.319969,7.61652209 173.049922,7.20797697 172.713638,6.86769509 C172.377353,6.52741321 171.977888,6.25229169 171.523394,6.05267345 C171.083167,5.85822666 170.595044,5.76100326 170.075332,5.76100326 L168.0403,5.76100326 C167.518549,5.76100326 167.031446,5.85822666 166.591219,6.05267345 C166.13163,6.25436027 165.724012,6.53155038 165.379575,6.87700372 C165.040233,7.21521701 164.769168,7.61962496 164.573511,8.07678177 C164.38295,8.52359567 164.286141,9.01798697 164.286141,9.54754419 L164.286141,27.2194476 C164.286141,27.7469362 164.38295,28.2423618 164.573511,28.6881414 C164.771206,29.1504697 165.045329,29.5610833 165.387728,29.9096396 C165.731146,30.2581958 166.135706,30.5364202 166.591219,30.7360384 C167.031446,30.9304852 167.518549,31.0287429 168.0403,31.0287429 L170.075332,31.0287429 C170.595044,31.0287429 171.083167,30.9304852 171.522375,30.7370727 C171.972792,30.5384887 172.372258,30.2633672 172.706504,29.9179139 C173.046865,29.5662548 173.31895,29.1525382 173.517664,28.6891757 C173.708225,28.2423618 173.806053,27.7469362 173.806053,27.2194476 Z M128.336267,5.82409504 C128.828465,6.98146715 129.077112,8.23502836 129.077112,9.54754419 L129.077112,11.2655023 L123.265502,11.2655023 L123.265502,9.54754419 C123.265502,9.01798697 123.168693,8.52359567 122.977113,8.07781606 C122.779418,7.61652209 122.509371,7.20797697 122.174106,6.86769509 C121.837821,6.52741321 121.437337,6.25229169 120.981824,6.05267345 C120.542616,5.85822666 120.055512,5.76100326 119.533762,5.76100326 L117.49873,5.76100326 C116.977998,5.76100326 116.490895,5.85822666 116.051687,6.05267345 C115.592098,6.25436027 115.18448,6.53155038 114.839024,6.87700372 C114.500702,7.21521701 114.228617,7.61962496 114.033979,8.07678177 C113.843418,8.52359567 113.74559,9.01798697 113.74559,9.54754419 L113.74559,27.2194476 C113.74559,27.7469362 113.843418,28.2423618 114.03296,28.6881414 C114.230655,29.1504697 114.504778,29.5610833 114.848196,29.9096396 C115.191614,30.2581958 115.596174,30.5364202 116.051687,30.7360384 C116.490895,30.9304852 116.977998,31.0287429 117.49873,31.0287429 L119.533762,31.0287429 C120.055512,31.0287429 120.542616,30.9304852 120.980805,30.7370727 C121.43326,30.5384887 121.830688,30.2633672 122.165953,29.9179139 C122.506314,29.5662548 122.779418,29.1525382 122.976094,28.6891757 C123.168693,28.2423618 123.265502,27.7469362 123.265502,27.2194476 L123.265502,25.0164068 L129.077112,25.0164068 L129.077112,27.2194476 C129.077112,28.5319634 128.828465,29.7855246 128.336267,30.9428967 C127.85324,32.0899259 127.175576,33.1076687 126.323654,33.9723363 C125.471733,34.8370039 124.466956,35.5237734 123.338873,36.0160962 C122.198563,36.5135903 120.963481,36.7659574 119.669295,36.7659574 L117.364216,36.7659574 C116.072068,36.7659574 114.835967,36.5146246 113.687504,36.0171305 C112.548213,35.5248077 111.539359,34.8370039 110.687438,33.9723363 C109.835516,33.1076687 109.158871,32.0899259 108.673806,30.9418624 C108.183646,29.7855246 107.934999,28.5319634 107.934999,27.2194476 L107.934999,9.54754419 C107.934999,8.23502836 108.183646,6.98146715 108.673806,5.82306075 C109.158871,4.67706584 109.835516,3.65725449 110.687438,2.79362115 C111.539359,1.92998781 112.548213,1.24218401 113.686485,0.748826995 C114.835967,0.252367109 116.072068,0 117.364216,0 L119.669295,0 C120.963481,0 122.197544,0.252367109 123.338873,0.749861286 C124.467975,1.2432183 125.472752,1.9310221 126.323654,2.79362115 C127.175576,3.65725449 127.85324,4.67706584 128.336267,5.82409504 Z M98.0482302,3.25388084 C98.8991322,4.11751418 99.5778158,5.1414627 100.062881,6.29676622 C100.55406,7.46344696 100.801688,8.71907675 100.801688,10.029524 L100.801688,26.7591879 C100.801688,28.072738 100.553041,29.3262992 100.060843,30.4847056 C99.5778158,31.6296662 98.8991322,32.6484433 98.0482302,33.5131109 C97.1973281,34.3767442 96.1874552,35.0655823 95.0491826,35.5579051 C93.8997005,36.0564335 92.6635997,36.3077663 91.3724705,36.3077663 L79.6595745,36.3077663 L79.6595745,0.459225395 L91.3724705,0.459225395 C92.6635997,0.459225395 93.8997005,0.711592504 95.0481636,1.20805239 C96.1874552,1.7014094 97.1973281,2.39024749 98.0482302,3.25388084 Z M94.990078,26.7591879 L94.990078,10.029524 C94.990078,9.50100107 94.8932688,9.00660977 94.7016885,8.55979587 C94.5050129,8.0974676 94.2298709,7.6868539 93.887472,7.33829769 C93.5440541,6.98974148 93.1384744,6.71151709 92.6839806,6.51086455 C92.2437534,6.31745205 91.7576693,6.21919437 91.2359186,6.21919437 L85.4701655,6.21919437 L85.4701655,30.5457288 L91.2359186,30.5457288 C91.7576693,30.5457288 92.2437534,30.4485054 92.6839806,30.2550929 C93.1415315,30.0534061 93.5491493,29.7751817 93.8956244,29.4307626 C94.2359852,29.091515 94.5060319,28.6871071 94.7006694,28.2299503 C94.8932688,27.7831364 94.990078,27.2887451 94.990078,26.7591879 Z" id="logo-type" fill="#251C4B"></path>
            <polygon id="slash" fill="url(#linearGradient-1)" points="148.33654 -2.274e-13 132.765957 36.7659574 137.62497 36.7659574 153.191489 -2.274e-13"></polygon>
            <path d="M9.65889495,4.07418191 L32.9809671,17.5808595 L52.6372337,4.07418191 L9.65889495,4.07418191 Z M36.901143,19.8503703 L43.2655311,23.5376923 L52.1900342,9.34540161 L36.901143,19.8503703 Z M8.21780465,7.96303564 L19.9116627,26.5606684 L29.251569,20.1440598 L8.21780465,7.96303564 Z M46.8256909,25.5985822 L57.1502567,31.5776948 L57.1502567,9.18032787 L46.8256909,25.5985822 Z M4.126339,9.18032787 L4.126339,37.4069245 L16.5197156,28.8909425 L4.126339,9.18032787 Z M22.0912477,30.0272169 L30.6382979,43.6179505 L41.0890232,26.9991772 L33.1707192,22.4135705 L22.0912477,30.0272169 Z M30.6372722,48 C29.3018276,48 28.0720289,47.2617254 27.2617361,45.9735426 L27.2617361,45.9725299 L18.6993006,32.357491 L5.76743828,41.2441294 C4.45455886,42.146465 3.02475111,42.3166023 1.85033944,41.7099816 C0.673876392,41.103361 0,39.8496107 0,38.2687512 L0,5.07475157 C0,3.10196848 1.14569243,1.38844231 2.81551095,0.549908222 C3.32527742,0.229887968 4.06479778,0.00101272232 5.13561506,0 L5.13664075,0 L5.14074349,0 L56.1358522,0 L56.139955,0 L56.1409807,0 C57.1389742,0.00101272232 57.8518267,0.207608076 58.3615931,0.500284828 C60.0847474,1.32058991 61.2765957,3.06247231 61.2765957,5.07475157 L61.2765957,32.0962086 C61.2765957,33.6426356 60.6150276,34.9044876 59.460104,35.5587062 C58.3041547,36.2108994 56.8651157,36.1369707 55.5153116,35.3551491 L44.6481573,29.0610798 L34.013834,45.9725299 C33.2035412,47.2617254 31.9737424,48 30.6372722,48 Z" id="logo-mark" fill="url(#linearGradient-1)"></path>
        </g>
    </g>
</svg>