<?xml version="1.0" encoding="utf-8"?>
<!-- Generator: Adobe Illustrator 21.1.0, SVG Export Plug-In . SVG Version: 6.00 Build 0)  -->
<svg version="1.1" id="Layer_1" xmlns="http://www.w3.org/2000/svg" xmlns:xlink="http://www.w3.org/1999/xlink" x="0px" y="0px"
	 width="566.7px" height="415.2px" viewBox="0 0 566.7 415.2" style="enable-background:new 0 0 566.7 415.2;" xml:space="preserve"
	>
<style type="text/css">
	.st0{fill:url(#SVGID_1_);}
</style>
<linearGradient id="SVGID_1_" gradientUnits="userSpaceOnUse" x1="0" y1="207.6158" x2="566.7491" y2="207.6158">
	<stop  offset="0" style="stop-color:#6C61AB"/>
	<stop  offset="1" style="stop-color:#ED1C7D"/>
</linearGradient>
<path class="st0" d="M545.8,4.1C541.6,1.4,536,0,528.6,0H38.1c-5.2,0-12.7,0.5-18,4.5C7.7,11.2,0,24.1,0,38.1v284.2
	c0,19.8,13.2,28.9,25.5,28.9c5.6,0,11.3-1.7,16.9-5.2l126.1-77.7l89.6,132.5c6.2,9.2,15.4,14.5,25.3,14.5c9.9,0,19.1-5.3,25.3-14.5
	l114-168.6l101.8,50.2c13,6.4,27.1,4.1,35.2-5.6c4.6-5.4,7-12.6,7-20.7v-218C566.7,23.8,558.4,10.4,545.8,4.1z M151.9,243.8
	L29.5,319.3V62.9L151.9,243.8z M501.4,63.2l-88.7,131.1l-69-34L501.4,63.2z M78,29.5h421.9L312.4,145L78,29.5z M396,219L284.2,384.2
	c-0.3,0.5-0.6,0.8-0.9,1.1c-0.2-0.3-0.5-0.6-0.9-1.1l-88.9-131.4L314,178.7L396,219z M282.8,163.3l-105.7,65.1L58.1,52.6
	L282.8,163.3z M537.3,62.9v192.9l-97.9-48.2L537.3,62.9z"/>
</svg>
