<?xml version="1.0" encoding="utf-8"?>
<!-- Generator: Adobe Illustrator 21.1.0, SVG Export Plug-In . SVG Version: 6.00 Build 0)  -->
<svg version="1.1" id="Layer_1" xmlns="http://www.w3.org/2000/svg" xmlns:xlink="http://www.w3.org/1999/xlink" x="0px" y="0px"
	 width="81px" height="60px" viewBox="0 0 81 60" style="enable-background:new 0 0 81 60;" xml:space="preserve">
<style type="text/css">
	.st0{fill:url(#SVGID_1_);}
</style>
<linearGradient id="SVGID_1_" gradientUnits="userSpaceOnUse" x1="5.6" y1="1264.45" x2="73.6012" y2="1264.45" gradientTransform="matrix(1 0 0 1 0 -1234)">
	<stop  offset="0" style="stop-color:#7D58FF"/>
	<stop  offset="1" style="stop-color:#FF007D"/>
</linearGradient>
<path class="st0" d="M71.1,6c-0.5-0.3-1.2-0.5-2.1-0.5H10.2C9.6,5.5,8.7,5.6,8,6.1c-1.5,0.8-2.4,2.3-2.4,4v34.1
	c0,2.4,1.6,3.5,3.1,3.5c0.7,0,1.4-0.2,2-0.6l15.1-9.3l10.8,15.9c0.7,1.1,1.9,1.7,3,1.7c1.2,0,2.3-0.6,3-1.7l13.7-20.2l12.2,6
	c1.6,0.8,3.2,0.5,4.2-0.7c0.5-0.6,0.8-1.5,0.8-2.5V10.1C73.6,8.4,72.6,6.8,71.1,6z M23.9,34.8l-14.7,9V13.1L23.9,34.8z M65.8,13.1
	L55.1,28.9l-8.3-4.1L65.8,13.1z M15,9.1h50.6L43.1,22.9L15,9.1z M53.1,31.8L39.7,51.7c0,0.1-0.1,0.1-0.1,0.1l-0.1-0.1L28.9,35.9
	L43.3,27L53.1,31.8z M39.6,25.1L26.9,33L12.6,11.9L39.6,25.1z M70.1,13.1v23.1l-11.7-5.8L70.1,13.1z"/>
</svg>
