<?xml version="1.0" encoding="UTF-8"?>
<svg width="256px" height="187px" viewBox="0 0 256 187" version="1.1" xmlns="http://www.w3.org/2000/svg" xmlns:xlink="http://www.w3.org/1999/xlink">
    <!-- Generator: Sketch 43.2 (39069) - http://www.bohemiancoding.com/sketch -->
    <title>mesosphere</title>
    <desc>Created with Sketch.</desc>
    <defs></defs>
    <g id="Page-1" stroke="none" stroke-width="1" fill="none" fill-rule="evenodd">
        <g id="mesosphere" fill-rule="nonzero" fill="#A9A6AF">
            <path d="M128.091,186.803 C124.068,186.803 120.288,184.608 117.666,180.828 L75.965,119.19 L17.254,155.344 C14.937,156.807 12.559,157.477 10.242,157.477 C5.304,157.477 0,153.82 0,145.711 L0,15.973 C0,10.121 3.292,4.633 8.474,1.89 C10.67,0.183 13.78,0 16.034,0 L240.088,0 C243.075,0 245.392,0.549 247.098,1.646 C252.526,4.33 256,9.938 256,15.973 L256,115.533 C256,118.885 255.025,121.873 253.135,124.068 C251.123,126.445 248.196,127.787 244.965,127.787 C242.953,127.787 240.819,127.299 238.746,126.262 L191.131,102.79 L138.395,180.767 C135.895,184.607 132.115,186.803 128.091,186.803 Z M85.11,113.58 L126.506,174.791 C127.116,175.706 127.726,176.071 128.091,176.071 C128.457,176.071 129.067,175.645 129.677,174.791 L181.62,98.034 L142.053,78.524 L85.11,113.58 L85.11,113.58 Z M10.303,146.87 L10.303,152.235 L10.303,146.87 Z M10.73,22.68 L10.73,145.773 C10.73,146.2 10.791,146.504 10.791,146.748 C11.035,146.688 11.279,146.504 11.645,146.322 L69.99,110.352 L10.73,22.68 L10.73,22.68 Z M197.29,93.89 L243.564,116.692 C244.844,117.302 245.21,117.118 245.21,117.118 C245.21,117.058 245.454,116.57 245.454,115.533 L245.454,22.68 L197.29,93.889 L197.29,93.89 Z M21.095,18.961 L79.135,104.741 L130.713,72.977 L21.095,18.961 Z M152.722,71.941 L187.595,89.134 L232.467,22.802 L152.722,71.941 L152.722,71.941 Z M28.29,10.608 L141.444,66.332 L231.98,10.608 L28.289,10.608 L28.29,10.608 Z" id="Shape"></path>
        </g>
    </g>
</svg>