<?xml version="1.0" encoding="UTF-8"?>
<svg width="42px" height="42px" viewBox="0 0 42 42" version="1.1" xmlns="http://www.w3.org/2000/svg" xmlns:xlink="http://www.w3.org/1999/xlink">
    <!-- Generator: Sketch 43.2 (39069) - http://www.bohemiancoding.com/sketch -->
    <title>packages</title>
    <desc>Created with Sketch.</desc>
    <defs></defs>
    <g id="Page-1" stroke="none" stroke-width="1" fill="none" fill-rule="evenodd">
        <g id="install-copy-5" transform="translate(-732.000000, -1027.000000)" fill="#A9A6AF">
            <g id="Group-11" transform="translate(239.000000, 1026.000000)">
                <g id="item-3" transform="translate(492.666667, 1.000000)">
                    <g id="packages">
                        <path d="M0.333333333,1.99749218 C0.333333333,0.894307712 1.22999367,0 2.33082552,0 L40.3358412,0 C41.4390256,0 42.3333333,0.896660339 42.3333333,1.99749218 L42.3333333,40.0025078 C42.3333333,41.1056923 41.436673,42 40.3358412,42 L2.33082552,42 C1.22764105,42 0.333333333,41.1033397 0.333333333,40.0025078 L0.333333333,1.99749218 Z M2.33333333,2.9968754 L2.33333333,39.0031246 C2.33333333,39.5467697 2.77964965,40 3.33020873,40 L39.3364579,40 C39.880103,40 40.3333333,39.5536837 40.3333333,39.0031246 L40.3333333,2.9968754 C40.3333333,2.45323029 39.887017,2 39.3364579,2 L3.33020873,2 C2.78656362,2 2.33333333,2.44631632 2.33333333,2.9968754 Z" id="Combined-Shape"></path>
                        <path d="M7.33333333,9.0085302 C7.33333333,7.8992496 8.23528369,7 9.34186353,7 L17.3248031,7 C18.4340837,7 19.3333333,7.90195036 19.3333333,9.0085302 L19.3333333,16.9914698 C19.3333333,18.1007504 18.431383,19 17.3248031,19 L9.34186353,19 C8.23258293,19 7.33333333,18.0980496 7.33333333,16.9914698 L7.33333333,9.0085302 Z M8.33333333,8.99539757 L8.33333333,17.0046024 C8.33333333,17.5443356 8.778988,18 9.3287309,18 L17.3379358,18 C17.8776689,18 18.3333333,17.5543453 18.3333333,17.0046024 L18.3333333,8.99539757 C18.3333333,8.4556644 17.8876787,8 17.3379358,8 L9.3287309,8 C8.78899773,8 8.33333333,8.44565467 8.33333333,8.99539757 Z" id="Combined-Shape"></path>
                        <rect id="Combined-Shape" x="23.3333333" y="7" width="12" height="12" rx="2"></rect>
                        <rect id="Combined-Shape" x="7.33333333" y="23" width="12" height="12" rx="2"></rect>
                        <path d="M23.3333333,25.0085302 C23.3333333,23.8992496 24.2352837,23 25.3418635,23 L33.3248031,23 C34.4340837,23 35.3333333,23.9019504 35.3333333,25.0085302 L35.3333333,32.9914698 C35.3333333,34.1007504 34.431383,35 33.3248031,35 L25.3418635,35 C24.2325829,35 23.3333333,34.0980496 23.3333333,32.9914698 L23.3333333,25.0085302 Z M24.3333333,24.9953976 L24.3333333,33.0046024 C24.3333333,33.5443356 24.778988,34 25.3287309,34 L33.3379358,34 C33.8776689,34 34.3333333,33.5543453 34.3333333,33.0046024 L34.3333333,24.9953976 C34.3333333,24.4556644 33.8876787,24 33.3379358,24 L25.3287309,24 C24.7889977,24 24.3333333,24.4456547 24.3333333,24.9953976 Z" id="Combined-Shape"></path>
                    </g>
                </g>
            </g>
        </g>
    </g>
</svg>