<?xml version="1.0" encoding="UTF-8"?>
<svg width="36px" height="42px" viewBox="0 0 36 42" version="1.1" xmlns="http://www.w3.org/2000/svg" xmlns:xlink="http://www.w3.org/1999/xlink">
    <!-- Generator: Sketch 43.2 (39069) - http://www.bohemiancoding.com/sketch -->
    <title>timer</title>
    <desc>Created with Sketch.</desc>
    <defs></defs>
    <g id="Page-1" stroke="none" stroke-width="1" fill="none" fill-rule="evenodd">
        <g id="install-copy-5" transform="translate(-981.000000, -1027.000000)" fill="#A9A6AF">
            <g id="Group-11" transform="translate(239.000000, 1026.000000)">
                <g id="item-4" transform="translate(738.000000, 1.000000)">
                    <g id="timer" transform="translate(4.000000, 0.000000)">
                        <path d="M17,22.1707057 L17,14.9953976 C17,14.4456547 17.4438648,14 18,14 C18.5522847,14 19,14.4556644 19,14.9953976 L19,22.1707057 C20.1651924,22.5825421 21,23.6937812 21,25 C21,26.6568542 19.6568542,28 18,28 C16.3431458,28 15,26.6568542 15,25 C15,23.6937812 15.8348076,22.5825421 17,22.1707057 Z M19,6.02730838 C22.7817334,6.23438674 26.2525761,7.60880882 29.0583574,9.79640383 L31.3538857,7.06069971 C31.7008643,6.64718678 32.3337153,6.58950556 32.75679,6.94450736 C33.1828142,7.30198416 33.2377026,7.92710187 32.8859746,8.34627493 L30.5655087,11.1116985 C33.9181798,14.3809177 36,18.9473413 36,24 C36,33.9411255 27.9411255,42 18,42 C8.0588745,42 0,33.9411255 0,24 C0,14.3944316 7.52401096,6.54619008 17,6.02730838 L17,2 L14.9970301,2 C14.4463856,2 14,1.55613518 14,1 C14,0.44771525 14.4530363,0 14.9970301,0 L21.0029699,0 C21.5536144,0 22,0.443864822 22,1 C22,1.55228475 21.5469637,2 21.0029699,2 L19,2 L19,6.02730838 Z M18,40 C26.836556,40 34,32.836556 34,24 C34,15.163444 26.836556,8 18,8 C9.163444,8 2,15.163444 2,24 C2,32.836556 9.163444,40 18,40 Z" id="Combined-Shape"></path>
                        <path d="M17,7 L19,7 L19,9.00104344 C19,9.55275191 18.5561352,10 18,10 C17.4477153,10 17,9.55733967 17,9.00104344 L17,7 Z M25.6339746,8.77756814 L27.3660254,9.77756814 L26.3655037,11.5105226 C26.0896494,11.9883161 25.4816272,12.1537119 25,11.8756443 C24.5217074,11.599502 24.3553048,10.9922893 24.6334529,10.5105226 L25.6339746,8.77756814 Z M32.2224319,14.6339746 L33.2224319,16.3660254 L31.4894774,17.3665471 C31.0116839,17.6424014 30.4024232,17.4816272 30.1243557,17 C29.8482133,16.5217074 30.0077107,15.9126444 30.4894774,15.6344963 L32.2224319,14.6339746 Z M35,23 L35,25 L32.9989566,25 C32.4472481,25 32,24.5561352 32,24 C32,23.4477153 32.4426603,23 32.9989566,23 L35,23 Z M33.2224319,31.6339746 L32.2224319,33.3660254 L30.4894774,32.3655037 C30.0116839,32.0896494 29.8462881,31.4816272 30.1243557,31 C30.400498,30.5217074 31.0077107,30.3553048 31.4894774,30.6334529 L33.2224319,31.6339746 Z M27.3660254,38.2224319 L25.6339746,39.2224319 L24.6334529,37.4894774 C24.3575986,37.0116839 24.5183728,36.4024232 25,36.1243557 C25.4782926,35.8482133 26.0873556,36.0077107 26.3655037,36.4894774 L27.3660254,38.2224319 Z M19,41 L17,41 L17,38.9989566 C17,38.4472481 17.4438648,38 18,38 C18.5522847,38 19,38.4426603 19,38.9989566 L19,41 Z M10.3660254,39.2224319 L8.6339746,38.2224319 L9.63449632,36.4894774 C9.91035055,36.0116839 10.5183728,35.8462881 11,36.1243557 C11.4782926,36.400498 11.6446952,37.0077107 11.3665471,37.4894774 L10.3660254,39.2224319 Z M3.77756814,33.3660254 L2.77756814,31.6339746 L4.51052259,30.6334529 C4.98831614,30.3575986 5.59757676,30.5183728 5.87564435,31 C6.15178672,31.4782926 5.99228925,32.0873556 5.51052259,32.3655037 L3.77756814,33.3660254 Z M1,25 L1,23 L3.00104344,23 C3.55275191,23 4,23.4438648 4,24 C4,24.5522847 3.55733967,25 3.00104344,25 L1,25 Z M2.77756814,16.3660254 L3.77756814,14.6339746 L5.51052259,15.6344963 C5.98831614,15.9103506 6.15371194,16.5183728 5.87564435,17 C5.59950197,17.4782926 4.99228925,17.6446952 4.51052259,17.3665471 L2.77756814,16.3660254 Z M8.6339746,9.77756814 L10.3660254,8.77756814 L11.3665471,10.5105226 C11.6424014,10.9883161 11.4816272,11.5975768 11,11.8756443 C10.5217074,12.1517867 9.91264443,11.9922893 9.63449632,11.5105226 L8.6339746,9.77756814 Z" id="Rectangle-12"></path>
                    </g>
                </g>
            </g>
        </g>
    </g>
</svg>